<svg width="24" height="24" viewBox="0 0 24 24" fill="none" xmlns="http://www.w3.org/2000/svg">
<g id="Basic/Close">
<path id="path" d="M7.44629 6.39711C7.1527 6.17922 6.73604 6.20337 6.46974 6.4696C6.17681 6.76246 6.17675 7.23733 6.4696 7.53026L10.9382 12L6.4696 16.4697C6.17675 16.7627 6.17681 17.2375 6.46974 17.5304C6.73604 17.7966 7.1527 17.8208 7.44629 17.6029L7.5304 17.5303L11.999 13.061L16.4697 17.5304C16.736 17.7966 17.1527 17.8208 17.4463 17.6029L17.5304 17.5303C17.7966 17.264 17.8208 16.8473 17.6029 16.5537L17.5303 16.4696L13.0595 12L17.5303 7.5304L17.6029 7.44629C17.8208 7.1527 17.7966 6.73604 17.5304 6.46974L17.4463 6.39711C17.1527 6.17922 16.736 6.20337 16.4697 6.4696L11.999 10.939L7.5304 6.46974L7.44629 6.39711Z" fill="#151E41"/>
</g>
</svg>
